<mxfile host="app.diagrams.net" modified="2023-08-30T14:32:49.196Z" agent="Mozilla/5.0 (Macintosh; Intel Mac OS X 10.15; rv:109.0) Gecko/20100101 Firefox/116.0" etag="1O38JXqPYvmorl9qcxBj" version="21.7.0" type="github">
  <diagram name="PÃ¡gina-1" id="GvmghgJpxaNbaXJvIoFC">
    <mxGraphModel dx="2099" dy="823" grid="1" gridSize="10" guides="1" tooltips="1" connect="1" arrows="1" fold="1" page="1" pageScale="1" pageWidth="827" pageHeight="1169" math="0" shadow="0">
      <root>
        <mxCell id="0" />
        <mxCell id="1" parent="0" />
        <mxCell id="YfMsV275gqUlyurVnUBA-38" style="edgeStyle=orthogonalEdgeStyle;rounded=0;orthogonalLoop=1;jettySize=auto;html=1;exitX=0.5;exitY=0;exitDx=0;exitDy=0;entryX=0.5;entryY=1;entryDx=0;entryDy=0;endArrow=none;endFill=0;" edge="1" parent="1" source="YfMsV275gqUlyurVnUBA-1" target="YfMsV275gqUlyurVnUBA-12">
          <mxGeometry relative="1" as="geometry" />
        </mxCell>
        <mxCell id="YfMsV275gqUlyurVnUBA-43" style="edgeStyle=orthogonalEdgeStyle;rounded=0;orthogonalLoop=1;jettySize=auto;html=1;exitX=1;exitY=0.5;exitDx=0;exitDy=0;entryX=0;entryY=0.5;entryDx=0;entryDy=0;endArrow=none;endFill=0;" edge="1" parent="1" source="YfMsV275gqUlyurVnUBA-1" target="YfMsV275gqUlyurVnUBA-15">
          <mxGeometry relative="1" as="geometry" />
        </mxCell>
        <mxCell id="YfMsV275gqUlyurVnUBA-45" style="edgeStyle=orthogonalEdgeStyle;rounded=0;orthogonalLoop=1;jettySize=auto;html=1;exitX=1;exitY=0.5;exitDx=0;exitDy=0;entryX=0;entryY=0.5;entryDx=0;entryDy=0;endArrow=none;endFill=0;" edge="1" parent="1" source="YfMsV275gqUlyurVnUBA-1" target="YfMsV275gqUlyurVnUBA-13">
          <mxGeometry relative="1" as="geometry" />
        </mxCell>
        <mxCell id="YfMsV275gqUlyurVnUBA-1" value="ADMINISTRARDOR" style="rounded=0;whiteSpace=wrap;html=1;fillColor=#dae8fc;strokeColor=none;" vertex="1" parent="1">
          <mxGeometry x="590" y="340" width="120" height="60" as="geometry" />
        </mxCell>
        <mxCell id="YfMsV275gqUlyurVnUBA-5" value="INFORMACION" style="rounded=0;whiteSpace=wrap;html=1;" vertex="1" parent="1">
          <mxGeometry x="1000" y="280" width="120" height="60" as="geometry" />
        </mxCell>
        <mxCell id="YfMsV275gqUlyurVnUBA-41" style="edgeStyle=orthogonalEdgeStyle;rounded=0;orthogonalLoop=1;jettySize=auto;html=1;exitX=0.5;exitY=0;exitDx=0;exitDy=0;entryX=0.5;entryY=1;entryDx=0;entryDy=0;endArrow=none;endFill=0;" edge="1" parent="1" source="YfMsV275gqUlyurVnUBA-6" target="YfMsV275gqUlyurVnUBA-14">
          <mxGeometry relative="1" as="geometry" />
        </mxCell>
        <mxCell id="YfMsV275gqUlyurVnUBA-6" value="EVENTO" style="rounded=0;whiteSpace=wrap;html=1;" vertex="1" parent="1">
          <mxGeometry x="590" y="550" width="120" height="60" as="geometry" />
        </mxCell>
        <mxCell id="YfMsV275gqUlyurVnUBA-7" value="REDES SOCIALES " style="rounded=0;whiteSpace=wrap;html=1;" vertex="1" parent="1">
          <mxGeometry x="1000" y="400" width="120" height="60" as="geometry" />
        </mxCell>
        <mxCell id="YfMsV275gqUlyurVnUBA-19" style="edgeStyle=orthogonalEdgeStyle;rounded=0;orthogonalLoop=1;jettySize=auto;html=1;exitX=0.5;exitY=1;exitDx=0;exitDy=0;entryX=0.5;entryY=0;entryDx=0;entryDy=0;strokeColor=none;" edge="1" parent="1" source="YfMsV275gqUlyurVnUBA-8" target="YfMsV275gqUlyurVnUBA-17">
          <mxGeometry relative="1" as="geometry">
            <Array as="points">
              <mxPoint x="310" y="270" />
              <mxPoint x="250" y="270" />
              <mxPoint x="250" y="280" />
              <mxPoint x="80" y="280" />
            </Array>
          </mxGeometry>
        </mxCell>
        <mxCell id="YfMsV275gqUlyurVnUBA-30" style="edgeStyle=orthogonalEdgeStyle;rounded=0;orthogonalLoop=1;jettySize=auto;html=1;exitX=1;exitY=0.5;exitDx=0;exitDy=0;entryX=0;entryY=0.5;entryDx=0;entryDy=0;endArrow=none;endFill=0;" edge="1" parent="1" source="YfMsV275gqUlyurVnUBA-8" target="YfMsV275gqUlyurVnUBA-16">
          <mxGeometry relative="1" as="geometry" />
        </mxCell>
        <mxCell id="YfMsV275gqUlyurVnUBA-8" value="USUARIO" style="rounded=0;whiteSpace=wrap;html=1;fillColor=#dae8fc;strokeColor=none;" vertex="1" parent="1">
          <mxGeometry x="250" y="100" width="120" height="60" as="geometry" />
        </mxCell>
        <mxCell id="YfMsV275gqUlyurVnUBA-9" value="INCIDENTE DE VIOLENCIA " style="rounded=0;whiteSpace=wrap;html=1;fillColor=#f8cecc;strokeColor=none;" vertex="1" parent="1">
          <mxGeometry x="590" y="100" width="120" height="60" as="geometry" />
        </mxCell>
        <mxCell id="YfMsV275gqUlyurVnUBA-34" style="edgeStyle=orthogonalEdgeStyle;rounded=0;orthogonalLoop=1;jettySize=auto;html=1;exitX=1;exitY=0.5;exitDx=0;exitDy=0;endArrow=none;endFill=0;" edge="1" parent="1" source="YfMsV275gqUlyurVnUBA-10" target="YfMsV275gqUlyurVnUBA-17">
          <mxGeometry relative="1" as="geometry">
            <Array as="points">
              <mxPoint x="50" y="80" />
              <mxPoint x="50" y="80" />
            </Array>
          </mxGeometry>
        </mxCell>
        <mxCell id="YfMsV275gqUlyurVnUBA-10" value="CONTACTO" style="rounded=0;whiteSpace=wrap;html=1;" vertex="1" parent="1">
          <mxGeometry x="-100" y="50" width="120" height="60" as="geometry" />
        </mxCell>
        <mxCell id="YfMsV275gqUlyurVnUBA-36" style="edgeStyle=orthogonalEdgeStyle;rounded=0;orthogonalLoop=1;jettySize=auto;html=1;exitX=1;exitY=0.5;exitDx=0;exitDy=0;entryX=0;entryY=0.5;entryDx=0;entryDy=0;endArrow=none;endFill=0;" edge="1" parent="1" source="YfMsV275gqUlyurVnUBA-11" target="YfMsV275gqUlyurVnUBA-18">
          <mxGeometry relative="1" as="geometry" />
        </mxCell>
        <mxCell id="YfMsV275gqUlyurVnUBA-11" value="PREGUNTA" style="rounded=0;whiteSpace=wrap;html=1;" vertex="1" parent="1">
          <mxGeometry x="-100" y="150" width="120" height="60" as="geometry" />
        </mxCell>
        <mxCell id="YfMsV275gqUlyurVnUBA-39" style="edgeStyle=orthogonalEdgeStyle;rounded=0;orthogonalLoop=1;jettySize=auto;html=1;exitX=0.5;exitY=0;exitDx=0;exitDy=0;entryX=0.5;entryY=1;entryDx=0;entryDy=0;endArrow=none;endFill=0;" edge="1" parent="1" source="YfMsV275gqUlyurVnUBA-12" target="YfMsV275gqUlyurVnUBA-9">
          <mxGeometry relative="1" as="geometry" />
        </mxCell>
        <mxCell id="YfMsV275gqUlyurVnUBA-12" value="evalua riezgo" style="rhombus;whiteSpace=wrap;html=1;fillColor=#ffe6cc;strokeColor=none;" vertex="1" parent="1">
          <mxGeometry x="610" y="210" width="80" height="80" as="geometry" />
        </mxCell>
        <mxCell id="YfMsV275gqUlyurVnUBA-46" style="edgeStyle=orthogonalEdgeStyle;rounded=0;orthogonalLoop=1;jettySize=auto;html=1;exitX=1;exitY=0.5;exitDx=0;exitDy=0;entryX=0;entryY=0.5;entryDx=0;entryDy=0;endArrow=none;endFill=0;" edge="1" parent="1" source="YfMsV275gqUlyurVnUBA-13" target="YfMsV275gqUlyurVnUBA-5">
          <mxGeometry relative="1" as="geometry" />
        </mxCell>
        <mxCell id="YfMsV275gqUlyurVnUBA-13" value="agraga" style="rhombus;whiteSpace=wrap;html=1;fillColor=#ffe6cc;strokeColor=none;" vertex="1" parent="1">
          <mxGeometry x="827" y="270" width="80" height="80" as="geometry" />
        </mxCell>
        <mxCell id="YfMsV275gqUlyurVnUBA-40" style="edgeStyle=orthogonalEdgeStyle;rounded=0;orthogonalLoop=1;jettySize=auto;html=1;exitX=0.5;exitY=0;exitDx=0;exitDy=0;entryX=0.5;entryY=1;entryDx=0;entryDy=0;endArrow=none;endFill=0;" edge="1" parent="1" source="YfMsV275gqUlyurVnUBA-14" target="YfMsV275gqUlyurVnUBA-1">
          <mxGeometry relative="1" as="geometry" />
        </mxCell>
        <mxCell id="YfMsV275gqUlyurVnUBA-14" value="gestiona" style="rhombus;whiteSpace=wrap;html=1;fillColor=#ffe6cc;strokeColor=none;" vertex="1" parent="1">
          <mxGeometry x="610" y="430" width="80" height="80" as="geometry" />
        </mxCell>
        <mxCell id="YfMsV275gqUlyurVnUBA-44" style="edgeStyle=orthogonalEdgeStyle;rounded=0;orthogonalLoop=1;jettySize=auto;html=1;exitX=1;exitY=0.5;exitDx=0;exitDy=0;entryX=0;entryY=0.5;entryDx=0;entryDy=0;endArrow=none;endFill=0;" edge="1" parent="1" source="YfMsV275gqUlyurVnUBA-15" target="YfMsV275gqUlyurVnUBA-7">
          <mxGeometry relative="1" as="geometry" />
        </mxCell>
        <mxCell id="YfMsV275gqUlyurVnUBA-15" value="interactua" style="rhombus;whiteSpace=wrap;html=1;fillColor=#ffe6cc;strokeColor=none;" vertex="1" parent="1">
          <mxGeometry x="827" y="390" width="80" height="80" as="geometry" />
        </mxCell>
        <mxCell id="YfMsV275gqUlyurVnUBA-31" style="edgeStyle=orthogonalEdgeStyle;rounded=0;orthogonalLoop=1;jettySize=auto;html=1;exitX=1;exitY=0.5;exitDx=0;exitDy=0;entryX=0;entryY=0.5;entryDx=0;entryDy=0;endArrow=none;endFill=0;" edge="1" parent="1" source="YfMsV275gqUlyurVnUBA-16" target="YfMsV275gqUlyurVnUBA-9">
          <mxGeometry relative="1" as="geometry" />
        </mxCell>
        <mxCell id="YfMsV275gqUlyurVnUBA-16" value="denuncia" style="rhombus;whiteSpace=wrap;html=1;fillColor=#ffe6cc;strokeColor=none;" vertex="1" parent="1">
          <mxGeometry x="440" y="90" width="80" height="80" as="geometry" />
        </mxCell>
        <mxCell id="YfMsV275gqUlyurVnUBA-35" style="edgeStyle=orthogonalEdgeStyle;rounded=0;orthogonalLoop=1;jettySize=auto;html=1;exitX=1;exitY=0.5;exitDx=0;exitDy=0;entryX=0;entryY=0.5;entryDx=0;entryDy=0;endArrow=none;endFill=0;" edge="1" parent="1" source="YfMsV275gqUlyurVnUBA-17" target="YfMsV275gqUlyurVnUBA-8">
          <mxGeometry relative="1" as="geometry" />
        </mxCell>
        <mxCell id="YfMsV275gqUlyurVnUBA-17" value="comunica" style="rhombus;whiteSpace=wrap;html=1;fillColor=#ffe6cc;strokeColor=none;" vertex="1" parent="1">
          <mxGeometry x="80" y="40" width="80" height="80" as="geometry" />
        </mxCell>
        <mxCell id="YfMsV275gqUlyurVnUBA-37" style="edgeStyle=orthogonalEdgeStyle;rounded=0;orthogonalLoop=1;jettySize=auto;html=1;exitX=1;exitY=0.5;exitDx=0;exitDy=0;entryX=0;entryY=0.5;entryDx=0;entryDy=0;endArrow=none;endFill=0;" edge="1" parent="1" source="YfMsV275gqUlyurVnUBA-18" target="YfMsV275gqUlyurVnUBA-8">
          <mxGeometry relative="1" as="geometry" />
        </mxCell>
        <mxCell id="YfMsV275gqUlyurVnUBA-18" value="realiza" style="rhombus;whiteSpace=wrap;html=1;fillColor=#ffe6cc;strokeColor=none;" vertex="1" parent="1">
          <mxGeometry x="80" y="140" width="80" height="80" as="geometry" />
        </mxCell>
      </root>
    </mxGraphModel>
  </diagram>
</mxfile>
